<svg version="1.0" xmlns="http://www.w3.org/2000/svg" width="700" height="500" viewBox="0 0 700 500">

<g transform="translate(0.0,500) scale(0.1,-0.1)" fill="#ffffff" stroke="none">
    <rect x="390" y="-4420" width="6400" height="1950" fill="#46bc99" transform="scale(1,-1)" />
    <path d="M384 4566 c-48 -21 -100 -72 -123 -121 -21 -45 -21 -50 -21 -990 0
    -780 2 -951 14 -979 21 -49 71 -101 121 -125 l45 -21 3175 0 c2672 0 3181 2
    3209 14 49 21 101 71 125 121 21 45 21 50 21 990 0 780 -2 951 -14 979 -21 49
    -71 101 -121 125 l-45 21 -3177 0 c-2634 -1 -3183 -3 -3209 -14z m6383 -168
    l23 -21 0 -921 0 -920 -22 -23 -21 -23 -3151 0 -3150 0 -23 22 -23 21 0 921 0
    920 22 23 21 23 3151 0 3150 0 23 -22z"/>
    <path d="M645 4168 c-3 -7 -4 -332 -3 -723 l3 -710 718 -3 717 -2 0 725 0 725
    -715 0 c-563 0 -717 -3 -720 -12z m1373 -60 c17 -17 17 -1289 0 -1306 -17 -17
    -1289 -17 -1306 0 -17 17 -17 1289 0 1306 17 17 1289 17 1306 0z"/>
    <path d="M930 3955 c0 -17 6 -25 18 -25 9 0 34 -5 54 -11 69 -19 69 -17 66
    -478 -3 -467 1 -445 -89 -457 -43 -6 -49 -9 -49 -30 l0 -24 430 0 430 0 0 125
    0 125 -40 0 c-35 0 -40 -3 -40 -22 0 -41 -20 -97 -46 -128 l-26 -30 -177 2
    -176 3 -3 209 c-2 145 1 213 9 222 9 11 49 14 180 14 l169 0 0 30 0 30 -169 0
    c-131 0 -171 3 -180 14 -8 9 -11 70 -9 197 l3 184 149 3 149 3 29 -28 c29 -28
    48 -77 48 -125 0 -26 3 -28 40 -28 l40 0 0 125 0 125 -405 0 -405 0 0 -25z"/>
    <path d="M2130 3455 l0 -725 720 0 720 0 0 725 0 725 -720 0 -720 0 0 -725z
    m1368 653 c17 -17 17 -1289 0 -1306 -17 -17 -1279 -17 -1296 0 -17 17 -17
    1289 0 1306 17 17 1279 17 1296 0z"/>
    <path d="M2781 3975 c-228 -64 -344 -237 -344 -515 1 -293 112 -466 338 -525
    79 -20 255 -20 325 1 113 34 179 107 164 184 l-7 31 -46 -45 c-83 -81 -198
    -112 -321 -86 -49 10 -71 22 -111 58 -93 84 -114 155 -114 387 1 245 34 350
    134 420 39 27 50 30 121 30 70 0 81 -3 105 -25 46 -43 66 -79 74 -128 6 -47 7
    -47 41 -44 43 4 87 29 113 64 43 57 -5 142 -101 179 -75 29 -288 37 -371 14z"/>
    <path d="M3620 3455 l0 -725 718 2 717 3 0 720 0 720 -717 3 -718 2 0 -725z
    m1368 653 c17 -17 17 -1289 0 -1306 -17 -17 -1289 -17 -1306 0 -17 17 -17
    1289 0 1306 17 17 1289 17 1306 0z"/>
    <path d="M3780 3950 c0 -29 2 -30 43 -30 34 0 49 -6 68 -26 l24 -26 3 -391 c4
    -440 1 -460 -53 -483 -19 -8 -46 -14 -60 -14 -20 0 -25 -5 -25 -25 l0 -25 245
    0 245 0 0 24 c0 21 -6 24 -49 30 -37 5 -55 13 -71 33 -19 25 -20 37 -18 222
    l3 196 205 0 205 0 3 -175 c4 -208 -4 -245 -53 -266 -19 -8 -46 -14 -60 -14
    -20 0 -25 -5 -25 -25 l0 -25 245 0 245 0 0 24 c0 21 -6 24 -49 30 -37 5 -55
    13 -70 33 -20 25 -21 38 -21 430 0 481 -2 473 101 473 37 0 39 2 39 30 l0 30
    -245 0 -245 0 0 -30 c0 -29 2 -30 43 -30 34 0 49 -6 68 -26 23 -25 24 -32 27
    -190 2 -117 0 -169 -9 -180 -15 -19 -378 -21 -397 -2 -8 8 -12 61 -12 170 0
    206 10 228 101 228 37 0 39 2 39 30 l0 30 -245 0 -245 0 0 -30z"/>
    <path d="M5105 4168 c-3 -7 -4 -332 -3 -723 l3 -710 720 0 720 0 0 720 0 720
    -718 3 c-569 2 -719 0 -722 -10z m1373 -60 c17 -17 17 -1289 0 -1306 -17 -17
    -1289 -17 -1306 0 -17 17 -17 1289 0 1306 17 17 1289 17 1306 0z"/>
    <path d="M5648 3971 c-199 -64 -299 -210 -314 -461 -12 -185 44 -380 134 -467
    86 -83 200 -123 352 -124 114 -1 171 11 252 52 160 81 248 254 248 487 -1 278
    -131 471 -353 522 -72 16 -255 11 -319 -9z m283 -82 c103 -52 150 -184 150
    -425 0 -324 -78 -466 -256 -466 -70 0 -104 14 -157 68 -75 74 -103 203 -95
    433 5 166 19 231 63 309 58 100 188 135 295 81z"/>
</g>
</svg>
